<svg width="964" height="964" viewBox="0 0 964 964" fill="none" xmlns="http://www.w3.org/2000/svg" xmlns:xlink="http://www.w3.org/1999/xlink">
<g filter="url(#filter0_d_1092_54)">
<rect x="22" y="17" width="900" height="900" rx="260" fill="black"/>
<rect x="22" y="17" width="900" height="900" rx="260" fill="url(#pattern0_1092_54)" fill-opacity="0.22"/>
</g>
<g filter="url(#filter1_d_1092_54)">
<path d="M377.542 280.044C378.232 280.04 378.922 280.037 379.634 280.033C381.957 280.024 384.281 280.031 386.604 280.038C388.267 280.035 389.93 280.031 391.593 280.026C396.122 280.016 400.652 280.02 405.181 280.027C409.934 280.033 414.686 280.027 419.439 280.024C427.953 280.019 436.467 280.027 444.981 280.038C453.673 280.05 462.364 280.044 471.056 280.032C478.98 280.021 486.903 280.02 494.827 280.026C499.549 280.03 504.272 280.03 508.994 280.022C551.888 279.962 595.944 282.099 628.953 313.132C648.263 333.239 653.385 360.563 652.879 387.493C652.266 408.582 648.238 429.246 641.96 449.357C641.648 450.366 641.648 450.366 641.331 451.396C630.662 485.401 609.905 515.319 577.919 532.094C558.402 542.001 537.628 546.677 516.014 549.233C515.144 549.336 515.144 549.336 514.258 549.441C506.553 550.22 498.815 550.154 491.079 550.201C488.439 550.218 485.799 550.239 483.16 550.26C476.614 550.314 470.068 550.36 463.522 550.406C457.967 550.445 452.413 550.487 446.858 550.533C444.254 550.553 441.649 550.569 439.045 550.585C437.46 550.598 435.875 550.611 434.29 550.624C433.563 550.627 432.836 550.631 432.087 550.634C431.426 550.64 430.765 550.647 430.085 550.653C429.221 550.659 429.221 550.659 428.34 550.665C426.855 550.685 426.855 550.685 425.394 551.538C424.888 553.526 424.48 555.469 424.119 557.485C424.001 558.11 423.883 558.735 423.762 559.379C423.37 561.471 422.987 563.565 422.604 565.658C422.329 567.134 422.053 568.609 421.777 570.085C421.043 574.006 420.318 577.929 419.595 581.852C418.459 588.004 417.312 594.153 416.166 600.302C415.882 601.823 415.599 603.344 415.315 604.866C413.247 615.97 411.107 627.059 408.889 638.134C408.756 638.794 408.624 639.455 408.488 640.135C408.118 641.981 407.746 643.827 407.374 645.673C407.265 646.213 407.157 646.754 407.044 647.311C406.556 649.72 406.023 652.101 405.427 654.487C367.666 654.487 329.905 654.487 291 654.487C296.322 626.725 296.322 626.725 301.752 598.403C306.188 574.75 306.188 574.75 310.597 551.092C310.78 550.172 310.78 550.172 310.967 549.233C311.02 548.735 311.073 548.237 311.128 547.724C312.037 545.384 313.459 544.966 315.679 543.861C316.539 543.426 317.399 542.992 318.285 542.544C319.251 542.069 320.218 541.595 321.184 541.121C322.202 540.611 323.219 540.101 324.236 539.59C327.04 538.185 329.851 536.792 332.663 535.402C335.691 533.902 338.713 532.39 341.736 530.879C346.978 528.261 352.223 525.651 357.472 523.045C365.065 519.275 372.653 515.493 380.238 511.706C392.552 505.56 404.87 499.423 417.191 493.292C418.298 492.741 418.298 492.741 419.427 492.179C420.921 491.436 422.414 490.693 423.907 489.95C424.648 489.582 425.388 489.213 426.151 488.834C426.892 488.465 427.633 488.096 428.396 487.717C436.619 483.625 444.841 479.531 453.063 475.436C453.799 475.069 454.535 474.703 455.293 474.325C467.56 468.215 479.826 462.1 492.09 455.981C499.657 452.207 507.226 448.437 514.799 444.674C519.989 442.094 525.177 439.511 530.363 436.924C533.356 435.431 536.35 433.94 539.347 432.455C542.091 431.095 544.832 429.729 547.571 428.359C548.562 427.865 549.554 427.372 550.547 426.882C559.442 422.83 559.442 422.83 565.403 415.457C565.638 414.948 565.873 414.439 566.114 413.915C567.894 409.551 568.272 405.139 566.888 400.587C564.448 394.872 561.553 391.481 555.864 388.832C555.325 388.572 554.786 388.312 554.231 388.044C552.505 387.216 550.771 386.402 549.036 385.59C547.915 385.06 546.793 384.53 545.672 384C542.131 382.333 538.577 380.695 535.021 379.06C534.379 378.764 533.737 378.468 533.075 378.163C523.156 373.589 513.193 369.12 503.2 364.709C494.622 360.92 486.114 357.003 477.639 352.991C469.634 349.205 461.574 345.564 453.473 341.991C442.075 336.961 430.76 331.769 419.467 326.51C418.154 325.899 416.842 325.288 415.53 324.678C414.884 324.377 414.239 324.076 413.573 323.766C405.518 320.02 397.434 316.337 389.347 312.661C372.246 304.879 372.246 304.879 369.476 298.055C368.015 293.166 367.948 287.681 368.564 282.641C370.949 279.529 373.911 280.015 377.542 280.044Z" fill="white"/>
</g>
<g filter="url(#filter2_d_1092_54)">
<path d="M373.872 327.685C377.745 329.239 381.485 331.093 385.241 332.909C389.707 335.046 394.217 337.089 398.722 339.144C400.454 339.935 402.184 340.728 403.914 341.521C412.118 345.279 420.356 348.956 428.61 352.603C437.825 356.675 446.974 360.864 456.08 365.175C464.262 369.045 472.504 372.763 480.783 376.419C489.216 380.148 497.637 383.897 506.004 387.772C507.001 388.232 507.998 388.691 508.996 389.149C510.369 389.778 511.738 390.415 513.107 391.052C513.876 391.409 514.645 391.765 515.437 392.132C520.522 394.879 522.75 397.848 524.461 403.261C524.984 407.518 524.215 411.062 522.157 414.785C518.586 418.706 514.053 421.037 509.365 423.361C508.632 423.732 507.898 424.103 507.143 424.486C504.698 425.721 502.248 426.945 499.797 428.169C498.038 429.055 496.279 429.941 494.521 430.828C490.246 432.981 485.968 435.127 481.688 437.269C478.209 439.011 474.73 440.755 471.252 442.5C461.382 447.454 451.509 452.402 441.631 457.341C440.834 457.74 440.834 457.74 440.02 458.147C439.488 458.413 438.955 458.679 438.407 458.954C429.775 463.27 421.151 467.603 412.53 471.942C403.669 476.402 394.801 480.851 385.928 485.288C380.95 487.777 375.975 490.271 371.006 492.777C366.334 495.133 361.654 497.473 356.969 499.803C355.252 500.66 353.537 501.522 351.826 502.39C349.486 503.575 347.138 504.74 344.787 505.901C344.114 506.248 343.441 506.595 342.747 506.952C338.282 509.123 334.367 510.015 329.398 509.283C325.981 507.605 324.027 505.858 322.486 502.368C321.768 498.691 321.725 495.856 322.537 492.208C322.74 491.276 322.943 490.343 323.151 489.383C323.385 488.356 323.618 487.328 323.851 486.301C324.095 485.194 324.339 484.088 324.581 482.981C325.251 479.936 325.932 476.893 326.615 473.851C327.344 470.595 328.062 467.337 328.781 464.08C329.889 459.066 331 454.052 332.115 449.04C334.417 438.692 336.696 428.338 338.967 417.983C339.998 413.284 341.029 408.586 342.061 403.887C342.265 402.958 342.468 402.03 342.678 401.073C344.087 394.656 345.496 388.239 346.907 381.822C347.098 380.951 347.29 380.079 347.487 379.182C348.414 374.969 349.343 370.757 350.278 366.546C350.453 365.759 350.628 364.971 350.809 364.16C351.148 362.632 351.488 361.103 351.828 359.575C352.671 355.774 353.497 351.97 354.288 348.158C354.593 346.694 354.905 345.232 355.218 343.77C355.562 342.155 355.896 340.537 356.212 338.916C357.221 334.281 358.861 331.166 362.421 327.97C366.012 326.173 370.11 326.445 373.872 327.685Z" fill="url(#paint0_linear_1092_54)"/>
</g>
<defs>
<filter id="filter0_d_1092_54" x="0" y="0" width="964" height="964" filterUnits="userSpaceOnUse" color-interpolation-filters="sRGB">
<feFlood flood-opacity="0" result="BackgroundImageFix"/>
<feColorMatrix in="SourceAlpha" type="matrix" values="0 0 0 0 0 0 0 0 0 0 0 0 0 0 0 0 0 0 127 0" result="hardAlpha"/>
<feMorphology radius="12" operator="dilate" in="SourceAlpha" result="effect1_dropShadow_1092_54"/>
<feOffset dx="10" dy="15"/>
<feGaussianBlur stdDeviation="10"/>
<feComposite in2="hardAlpha" operator="out"/>
<feColorMatrix type="matrix" values="0 0 0 0 0 0 0 0 0 0 0 0 0 0 0 0 0 0 0.35 0"/>
<feBlend mode="normal" in2="BackgroundImageFix" result="effect1_dropShadow_1092_54"/>
<feBlend mode="normal" in="SourceGraphic" in2="effect1_dropShadow_1092_54" result="shape"/>
</filter>
<filter id="filter1_d_1092_54" x="291" y="270" width="401.913" height="414.487" filterUnits="userSpaceOnUse" color-interpolation-filters="sRGB">
<feFlood flood-opacity="0" result="BackgroundImageFix"/>
<feColorMatrix in="SourceAlpha" type="matrix" values="0 0 0 0 0 0 0 0 0 0 0 0 0 0 0 0 0 0 127 0" result="hardAlpha"/>
<feOffset dx="20" dy="10"/>
<feGaussianBlur stdDeviation="10"/>
<feComposite in2="hardAlpha" operator="out"/>
<feColorMatrix type="matrix" values="0 0 0 0 1 0 0 0 0 1 0 0 0 0 1 0 0 0 0.23 0"/>
<feBlend mode="normal" in2="BackgroundImageFix" result="effect1_dropShadow_1092_54"/>
<feBlend mode="normal" in="SourceGraphic" in2="effect1_dropShadow_1092_54" result="shape"/>
</filter>
<filter id="filter2_d_1092_54" x="321.938" y="316.689" width="242.682" height="222.846" filterUnits="userSpaceOnUse" color-interpolation-filters="sRGB">
<feFlood flood-opacity="0" result="BackgroundImageFix"/>
<feColorMatrix in="SourceAlpha" type="matrix" values="0 0 0 0 0 0 0 0 0 0 0 0 0 0 0 0 0 0 127 0" result="hardAlpha"/>
<feOffset dx="20" dy="10"/>
<feGaussianBlur stdDeviation="10"/>
<feComposite in2="hardAlpha" operator="out"/>
<feColorMatrix type="matrix" values="0 0 0 0 1 0 0 0 0 1 0 0 0 0 1 0 0 0 0.23 0"/>
<feBlend mode="normal" in2="BackgroundImageFix" result="effect1_dropShadow_1092_54"/>
<feBlend mode="normal" in="SourceGraphic" in2="effect1_dropShadow_1092_54" result="shape"/>
</filter>
<linearGradient id="paint0_linear_1092_54" x1="423.279" y1="326.689" x2="423.279" y2="509.535" gradientUnits="userSpaceOnUse">
<stop stop-color="#00B3FF"/>
<stop offset="1" stop-color="#0004FF"/>
</linearGradient>
<pattern id="pattern0_1092_54" patternUnits="userSpaceOnUse" viewBox="-7181.22 3181.39 458.11 840.58" width="34.612762612207071%" height="63.510507741059563%" x="191.94" y="215.74" patternContentUnits="objectBoundingBox">
<g id="pattern0_1092_54_inner">
<path d="M-6406.41 3405.89C-6391.45 3376.56 -6263.88 2771.26 -6269.16 2754.38C-6271.8 2745.49 -6281.48 2734.82 -6291.15 2732.15C-6301.71 2728.6 -6424.88 2786.37 -6662.43 2907.25C-7005.55 3082.35 -7016.98 3088.58 -7019.62 3115.24C-7021.38 3132.13 -7016.98 3147.24 -7006.43 3156.13C-6985.31 3174.79 -6450.4 3421 -6430.16 3421C-6422.24 3421 -6411.69 3413.89 -6406.41 3405.89ZM-6607 3317.01C-6687.06 3279.68 -6759.2 3246.79 -6766.24 3242.34C-6773.28 3238.79 -6795.28 3229.01 -6814.63 3221.01C-6895.57 3185.46 -6976.51 3145.46 -6981.79 3136.57C-6998.51 3109.02 -6967.72 3089.47 -6648.35 2928.59C-6442.48 2824.59 -6314.91 2765.04 -6305.23 2768.6C-6296.43 2772.15 -6292.91 2781.04 -6295.55 2793.48C-6346.58 3044.13 -6413.45 3342.78 -6423.12 3365.89C-6427.52 3376.56 -6438.08 3385.45 -6446 3385.45C-6453.92 3385.45 -6526.06 3355.23 -6607 3317.01Z" fill="white"/>
</g>
<use xlink:href="#pattern0_1092_54_inner" transform="translate(458.11 0)"/>
<use xlink:href="#pattern0_1092_54_inner" transform="translate(229.055 420.29)"/>
<use xlink:href="#pattern0_1092_54_inner" transform="translate(687.165 420.29)"/>
<use xlink:href="#pattern0_1092_54_inner" transform="translate(0 840.58)"/>
<use xlink:href="#pattern0_1092_54_inner" transform="translate(458.11 840.58)"/>
</pattern></defs>
</svg>
