<svg width="200" height="200" viewBox="0 0 200 200" fill="none" xmlns="http://www.w3.org/2000/svg" xmlns:xlink="http://www.w3.org/1999/xlink">
<defs>
<pattern id="pvt_pattern" patternUnits="userSpaceOnUse" width="200" height="200">
  <g opacity="0.25" style="mix-blend-mode:difference">
    <!-- Forma principal no centro -->
    <g transform="translate(50, 50) scale(0.3)">
      <path d="M139.08 154.601C142.44 148.002 171.15 11.833 169.96 8.034C169.37 6.034 167.19 3.635 165.01 3.035C162.64 2.235 134.92 15.232 81.47 42.426C4.25 81.817 1.68 83.217 1.08 89.215C0.69 93.015 1.68 96.414 4.05 98.413C8.81 102.612 129.18 158 133.73 158C135.52 158 137.89 156.4 139.08 154.601ZM93.94 134.605C75.92 126.207 59.69 118.809 58.1 117.809C56.52 117.009 51.57 114.81 47.21 113.01C29 105.012 10.79 96.014 9.6 94.014C5.84 87.816 12.77 83.417 84.63 47.225C130.96 23.83 159.67 10.433 161.85 11.233C163.83 12.033 164.62 14.032 164.02 16.832C152.54 73.219 137.49 140.404 135.32 145.603C134.33 148.002 131.95 150.002 130.17 150.002C128.39 150.002 112.15 143.203 93.94 134.605Z" fill="white"/>
    </g>
    
    <!-- Forma menor superior direita -->
    <g transform="translate(120, 20) scale(0.2) rotate(15)">
      <path d="M139.08 154.601C142.44 148.002 171.15 11.833 169.96 8.034C169.37 6.034 167.19 3.635 165.01 3.035C162.64 2.235 134.92 15.232 81.47 42.426C4.25 81.817 1.68 83.217 1.08 89.215C0.69 93.015 1.68 96.414 4.05 98.413C8.81 102.612 129.18 158 133.73 158C135.52 158 137.89 156.4 139.08 154.601ZM93.94 134.605C75.92 126.207 59.69 118.809 58.1 117.809C56.52 117.009 51.57 114.81 47.21 113.01C29 105.012 10.79 96.014 9.6 94.014C5.84 87.816 12.77 83.417 84.63 47.225C130.96 23.83 159.67 10.433 161.85 11.233C163.83 12.033 164.62 14.032 164.02 16.832C152.54 73.219 137.49 140.404 135.32 145.603C134.33 148.002 131.95 150.002 130.17 150.002C128.39 150.002 112.15 143.203 93.94 134.605Z" fill="white" opacity="0.7"/>
    </g>
    
    <!-- Forma menor inferior esquerda -->
    <g transform="translate(20, 120) scale(0.15) rotate(-20)">
      <path d="M139.08 154.601C142.44 148.002 171.15 11.833 169.96 8.034C169.37 6.034 167.19 3.635 165.01 3.035C162.64 2.235 134.92 15.232 81.47 42.426C4.25 81.817 1.68 83.217 1.08 89.215C0.69 93.015 1.68 96.414 4.05 98.413C8.81 102.612 129.18 158 133.73 158C135.52 158 137.89 156.4 139.08 154.601ZM93.94 134.605C75.92 126.207 59.69 118.809 58.1 117.809C56.52 117.009 51.57 114.81 47.21 113.01C29 105.012 10.79 96.014 9.6 94.014C5.84 87.816 12.77 83.417 84.63 47.225C130.96 23.83 159.67 10.433 161.85 11.233C163.83 12.033 164.62 14.032 164.02 16.832C152.54 73.219 137.49 140.404 135.32 145.603C134.33 148.002 131.95 150.002 130.17 150.002C128.39 150.002 112.15 143.203 93.94 134.605Z" fill="white" opacity="0.5"/>
    </g>
  </g>
</pattern>
</defs>
<rect width="200" height="200" fill="url(#pvt_pattern)"/>
</svg>
